<svg width="357.861" height="80.47" viewBox="0 0 357.861 80.47" xmlns="http://www.w3.org/2000/svg"><g id="svgGroup" stroke-linecap="round" fill-rule="evenodd" font-size="9pt" stroke="#555555" stroke-width="0.25mm" fill="#555555" style="stroke:#555555;stroke-width:0.25mm;fill:#555555"><path d="M 43.799 79.59 L 0 79.59 L 0 62.403 L 9.424 62.403 L 9.424 19.092 L 1.318 19.092 L 1.318 1.807 L 41.016 1.807 Q 50.684 1.807 57.52 3.37 Q 64.209 4.981 68.164 9.497 Q 72.119 14.014 72.119 22.266 Q 72.119 28.077 68.75 32.373 Q 65.381 36.67 60.205 38.575 Q 66.992 41.504 70.239 46.143 Q 73.486 50.782 73.486 58.887 Q 73.486 68.799 65.747 74.195 Q 58.008 79.59 43.799 79.59 Z M 189.307 57.569 L 198.291 57.569 L 198.291 79.59 L 145.313 79.59 L 145.313 65.772 L 169.434 41.602 L 159.424 41.602 L 156.201 48.487 L 146.631 48.487 L 146.631 27.295 L 196.533 27.295 L 196.533 40.772 L 173.633 65.186 L 187.598 65.186 L 189.307 57.569 Z M 136.084 56.495 L 105.664 56.495 Q 105.664 61.084 109.131 63.843 Q 112.598 66.602 117.48 66.602 Q 121.191 66.602 125.635 65.308 Q 130.078 64.014 134.57 61.28 L 135.4 61.573 L 135.4 74.707 Q 130.371 77.588 125.073 79.029 Q 119.775 80.469 111.865 80.469 Q 102.783 80.469 96.094 77.1 Q 89.355 73.78 85.767 67.579 Q 82.178 61.377 82.178 53.077 Q 82.178 44.873 85.693 38.819 Q 89.16 32.813 95.508 29.541 Q 101.855 26.27 110.4 26.27 Q 118.262 26.27 124.268 29.346 Q 130.273 32.471 133.569 38.184 Q 136.865 43.897 136.865 51.514 Q 136.865 54.151 136.084 56.495 Z M 302.588 56.495 L 272.168 56.495 Q 272.168 61.084 275.635 63.843 Q 279.102 66.602 283.984 66.602 Q 287.695 66.602 292.139 65.308 Q 296.582 64.014 301.074 61.28 L 301.904 61.573 L 301.904 74.707 Q 296.875 77.588 291.577 79.029 Q 286.279 80.469 278.369 80.469 Q 269.287 80.469 262.598 77.1 Q 255.859 73.78 252.271 67.579 Q 248.682 61.377 248.682 53.077 Q 248.682 44.873 252.197 38.819 Q 255.664 32.813 262.012 29.541 Q 268.359 26.27 276.904 26.27 Q 284.766 26.27 290.771 29.346 Q 296.777 32.471 300.073 38.184 Q 303.369 43.897 303.369 51.514 Q 303.369 54.151 302.588 56.495 Z M 348.438 64.893 L 348.438 79.59 L 310.938 79.59 L 310.938 64.893 L 317.236 64.893 L 317.236 42.383 L 310.938 42.383 L 310.938 29.2 L 340.625 26.27 L 340.625 34.766 Q 342.188 32.325 345.215 30.396 Q 348.242 28.467 351.685 27.369 Q 355.127 26.27 357.861 26.27 L 357.861 46.973 Q 352.148 45.069 348.438 45.069 Q 343.75 45.069 342.188 47.779 Q 340.625 50.489 340.625 54.883 L 340.625 64.893 L 348.438 64.893 Z M 236.133 64.893 L 242.432 64.893 L 242.432 79.59 L 206.445 79.59 L 206.445 64.893 L 212.744 64.893 L 212.744 42.383 L 206.445 42.383 L 206.445 30.372 L 236.133 27.295 L 236.133 64.893 Z M 224.463 22.168 Q 218.359 22.168 214.404 19.288 Q 210.449 16.407 210.449 10.987 Q 210.449 5.567 214.404 2.784 Q 218.359 0 224.561 0 Q 230.762 0 234.644 2.735 Q 238.525 5.469 238.525 10.987 Q 238.525 16.407 234.546 19.288 Q 230.566 22.168 224.463 22.168 Z M 34.424 45.997 Q 35.498 45.948 36.572 45.923 Q 37.646 45.899 38.721 45.899 Q 48.486 45.899 48.486 53.907 Q 48.486 59.082 45.288 60.743 Q 42.09 62.403 36.182 62.403 L 34.424 62.403 L 34.424 45.997 Z M 41.309 19.092 Q 44.287 19.092 46.143 20.948 Q 47.998 22.803 47.998 25.782 Q 47.998 30.079 45.337 31.641 Q 42.676 33.204 37.109 33.204 L 34.424 33.204 L 34.424 19.092 L 41.309 19.092 Z M 105.664 46.485 Q 105.664 43.506 107.471 40.943 Q 109.277 38.379 111.865 38.379 Q 114.99 38.379 116.577 40.894 Q 118.164 43.409 118.164 46.875 L 118.164 47.901 L 105.664 47.901 L 105.664 46.485 Z M 272.168 46.485 Q 272.168 43.506 273.975 40.943 Q 275.781 38.379 278.369 38.379 Q 281.494 38.379 283.081 40.894 Q 284.668 43.409 284.668 46.875 L 284.668 47.901 L 272.168 47.901 L 272.168 46.485 Z" vector-effect="non-scaling-stroke"/></g></svg>